# xmcd
#
# Track frame offsets:
#	150
#	11055
#	24461
#	39555
#	51340
#	63113
#	74721
#	86733
#	96945
#	109008
#	120459
#	134079
#
# Disc length: 1940 seconds
# Revision: 0
# Processed by: cddbd v1.5.2PL0 Copyright (c) Steve Scherf et al.
# Submitted via: dBpowerAMP V12.0
#
DISCID=aa07920c
DTITLE=Z.Z. Hill - Final Appearance [Kent] (L)
DYEAR=1984
DGENRE=Blues
TTITLE0=I'm Gonna Love You
TTITLE1=Hey Little Girl
TTITLE2=Someone To Love
TTITLE3=You Don't Love Me
TTITLE4=If I Could Do It All Over
TTITLE5=Everybody Has To Cry
TTITLE6=That's It
TTITLE7=Oh Darling
TTITLE8=Have Mercy Someone
TTITLE9=Please Take Me Back
TTITLE10=Found Love
TTITLE11=Set Your Sights Higher
EXTD=
EXTT0=
EXTT1=
EXTT2=
EXTT3=
EXTT4=
EXTT5=
EXTT6=
EXTT7=
EXTT8=
EXTT9=
EXTT10=
EXTT11=
PLAYORDER=
